<mxfile host="app.diagrams.net" modified="2022-09-09T07:44:07.860Z" agent="5.0 (Windows)" etag="Ei0hlTpi1mcrmo2kUA2R" version="20.3.0" type="github">
  <diagram id="nh-2rdH2V7WlwiJ88sN1" name="Page-1">
    <mxGraphModel dx="1422" dy="780" grid="1" gridSize="10" guides="1" tooltips="1" connect="1" arrows="1" fold="1" page="1" pageScale="1" pageWidth="827" pageHeight="1169" math="0" shadow="0">
      <root>
        <mxCell id="0" />
        <mxCell id="1" parent="0" />
        <mxCell id="cTXXYOUE4Hke3cIJga1Z-7" value="" style="edgeStyle=orthogonalEdgeStyle;rounded=0;orthogonalLoop=1;jettySize=auto;html=1;entryX=0;entryY=0.438;entryDx=0;entryDy=0;entryPerimeter=0;" parent="1" source="cTXXYOUE4Hke3cIJga1Z-1" target="cTXXYOUE4Hke3cIJga1Z-6" edge="1">
          <mxGeometry relative="1" as="geometry">
            <Array as="points">
              <mxPoint x="400" y="680" />
            </Array>
          </mxGeometry>
        </mxCell>
        <mxCell id="cTXXYOUE4Hke3cIJga1Z-98" style="edgeStyle=orthogonalEdgeStyle;rounded=0;comic=0;jumpSize=3;orthogonalLoop=1;jettySize=auto;html=1;entryX=0.5;entryY=0;entryDx=0;entryDy=0;strokeWidth=2;" parent="1" source="cTXXYOUE4Hke3cIJga1Z-1" target="cTXXYOUE4Hke3cIJga1Z-95" edge="1">
          <mxGeometry relative="1" as="geometry" />
        </mxCell>
        <mxCell id="cTXXYOUE4Hke3cIJga1Z-1" value="" style="whiteSpace=wrap;html=1;aspect=fixed;" parent="1" vertex="1">
          <mxGeometry x="150" y="620" width="160" height="160" as="geometry" />
        </mxCell>
        <mxCell id="cTXXYOUE4Hke3cIJga1Z-2" value="Login" style="text;html=1;strokeColor=none;fillColor=none;align=center;verticalAlign=middle;whiteSpace=wrap;rounded=0;" parent="1" vertex="1">
          <mxGeometry x="200" y="630" width="60" height="30" as="geometry" />
        </mxCell>
        <mxCell id="cTXXYOUE4Hke3cIJga1Z-4" value="FORM " style="rounded=1;whiteSpace=wrap;html=1;" parent="1" vertex="1">
          <mxGeometry x="170" y="690" width="120" height="60" as="geometry" />
        </mxCell>
        <mxCell id="cTXXYOUE4Hke3cIJga1Z-16" value="" style="edgeStyle=orthogonalEdgeStyle;rounded=0;orthogonalLoop=1;jettySize=auto;html=1;" parent="1" source="cTXXYOUE4Hke3cIJga1Z-6" target="cTXXYOUE4Hke3cIJga1Z-15" edge="1">
          <mxGeometry relative="1" as="geometry" />
        </mxCell>
        <mxCell id="cTXXYOUE4Hke3cIJga1Z-30" style="edgeStyle=orthogonalEdgeStyle;rounded=0;orthogonalLoop=1;jettySize=auto;html=1;" parent="1" source="cTXXYOUE4Hke3cIJga1Z-6" target="cTXXYOUE4Hke3cIJga1Z-23" edge="1">
          <mxGeometry relative="1" as="geometry">
            <Array as="points">
              <mxPoint x="910" y="620" />
              <mxPoint x="910" y="620" />
            </Array>
          </mxGeometry>
        </mxCell>
        <mxCell id="cTXXYOUE4Hke3cIJga1Z-36" style="edgeStyle=orthogonalEdgeStyle;rounded=0;comic=0;orthogonalLoop=1;jettySize=auto;html=1;entryX=0.5;entryY=1;entryDx=0;entryDy=0;strokeWidth=3;" parent="1" source="cTXXYOUE4Hke3cIJga1Z-6" target="cTXXYOUE4Hke3cIJga1Z-28" edge="1">
          <mxGeometry relative="1" as="geometry">
            <Array as="points">
              <mxPoint x="1720" y="730" />
            </Array>
          </mxGeometry>
        </mxCell>
        <mxCell id="cTXXYOUE4Hke3cIJga1Z-6" value="" style="whiteSpace=wrap;html=1;aspect=fixed;" parent="1" vertex="1">
          <mxGeometry x="404" y="610" width="160" height="160" as="geometry" />
        </mxCell>
        <mxCell id="cTXXYOUE4Hke3cIJga1Z-8" value="Home page" style="text;html=1;strokeColor=none;fillColor=none;align=center;verticalAlign=middle;whiteSpace=wrap;rounded=0;" parent="1" vertex="1">
          <mxGeometry x="454" y="620" width="60" height="30" as="geometry" />
        </mxCell>
        <mxCell id="cTXXYOUE4Hke3cIJga1Z-9" value="NAV" style="rounded=0;whiteSpace=wrap;html=1;" parent="1" vertex="1">
          <mxGeometry x="420" y="650" width="140" height="20" as="geometry" />
        </mxCell>
        <mxCell id="cTXXYOUE4Hke3cIJga1Z-10" value="FOOTER" style="rounded=0;whiteSpace=wrap;html=1;" parent="1" vertex="1">
          <mxGeometry x="417" y="740" width="134" height="20" as="geometry" />
        </mxCell>
        <mxCell id="cTXXYOUE4Hke3cIJga1Z-11" value="news and latest&lt;br&gt;products" style="rounded=0;whiteSpace=wrap;html=1;" parent="1" vertex="1">
          <mxGeometry x="430" y="680" width="114" height="50" as="geometry" />
        </mxCell>
        <mxCell id="cTXXYOUE4Hke3cIJga1Z-20" value="Store " style="swimlane;" parent="1" vertex="1">
          <mxGeometry x="390" y="130" width="550" height="435" as="geometry" />
        </mxCell>
        <mxCell id="cTXXYOUE4Hke3cIJga1Z-53" style="edgeStyle=orthogonalEdgeStyle;rounded=0;comic=0;orthogonalLoop=1;jettySize=auto;html=1;entryX=0;entryY=0.5;entryDx=0;entryDy=0;strokeWidth=1;jumpSize=3;" parent="cTXXYOUE4Hke3cIJga1Z-20" source="cTXXYOUE4Hke3cIJga1Z-15" target="cTXXYOUE4Hke3cIJga1Z-48" edge="1">
          <mxGeometry relative="1" as="geometry" />
        </mxCell>
        <mxCell id="cTXXYOUE4Hke3cIJga1Z-15" value="" style="whiteSpace=wrap;html=1;aspect=fixed;" parent="cTXXYOUE4Hke3cIJga1Z-20" vertex="1">
          <mxGeometry x="14" y="262.5" width="160" height="160" as="geometry" />
        </mxCell>
        <mxCell id="cTXXYOUE4Hke3cIJga1Z-17" value="Store" style="text;html=1;strokeColor=none;fillColor=none;align=center;verticalAlign=middle;whiteSpace=wrap;rounded=0;" parent="cTXXYOUE4Hke3cIJga1Z-20" vertex="1">
          <mxGeometry x="64" y="272.5" width="60" height="20" as="geometry" />
        </mxCell>
        <mxCell id="cTXXYOUE4Hke3cIJga1Z-18" value="NAV" style="rounded=0;whiteSpace=wrap;html=1;" parent="cTXXYOUE4Hke3cIJga1Z-20" vertex="1">
          <mxGeometry x="30" y="292.5" width="134" height="20" as="geometry" />
        </mxCell>
        <mxCell id="cTXXYOUE4Hke3cIJga1Z-19" value="FOOTER" style="rounded=0;whiteSpace=wrap;html=1;" parent="cTXXYOUE4Hke3cIJga1Z-20" vertex="1">
          <mxGeometry x="30" y="392.5" width="134" height="20" as="geometry" />
        </mxCell>
        <mxCell id="cTXXYOUE4Hke3cIJga1Z-67" style="edgeStyle=orthogonalEdgeStyle;rounded=0;comic=0;jumpSize=3;orthogonalLoop=1;jettySize=auto;html=1;entryX=0.5;entryY=0;entryDx=0;entryDy=0;strokeWidth=1;" parent="cTXXYOUE4Hke3cIJga1Z-20" source="cTXXYOUE4Hke3cIJga1Z-37" target="cTXXYOUE4Hke3cIJga1Z-15" edge="1">
          <mxGeometry relative="1" as="geometry">
            <Array as="points">
              <mxPoint x="94" y="150" />
            </Array>
          </mxGeometry>
        </mxCell>
        <mxCell id="cTXXYOUE4Hke3cIJga1Z-37" value="Payment confirmation" style="rhombus;whiteSpace=wrap;html=1;" parent="cTXXYOUE4Hke3cIJga1Z-20" vertex="1">
          <mxGeometry x="174" y="100" width="100" height="100" as="geometry" />
        </mxCell>
        <mxCell id="cTXXYOUE4Hke3cIJga1Z-45" value="Product list" style="rounded=0;whiteSpace=wrap;html=1;" parent="cTXXYOUE4Hke3cIJga1Z-20" vertex="1">
          <mxGeometry x="30" y="323" width="130" height="60" as="geometry" />
        </mxCell>
        <mxCell id="cTXXYOUE4Hke3cIJga1Z-59" style="edgeStyle=orthogonalEdgeStyle;rounded=0;comic=0;jumpSize=3;orthogonalLoop=1;jettySize=auto;html=1;entryX=0;entryY=0.5;entryDx=0;entryDy=0;strokeWidth=1;" parent="cTXXYOUE4Hke3cIJga1Z-20" source="cTXXYOUE4Hke3cIJga1Z-48" target="cTXXYOUE4Hke3cIJga1Z-54" edge="1">
          <mxGeometry relative="1" as="geometry" />
        </mxCell>
        <mxCell id="cTXXYOUE4Hke3cIJga1Z-48" value="" style="whiteSpace=wrap;html=1;aspect=fixed;" parent="cTXXYOUE4Hke3cIJga1Z-20" vertex="1">
          <mxGeometry x="200" y="262.5" width="160" height="160" as="geometry" />
        </mxCell>
        <mxCell id="cTXXYOUE4Hke3cIJga1Z-49" value="product page" style="text;html=1;strokeColor=none;fillColor=none;align=center;verticalAlign=middle;whiteSpace=wrap;rounded=0;" parent="cTXXYOUE4Hke3cIJga1Z-20" vertex="1">
          <mxGeometry x="247" y="272.5" width="83" height="17.5" as="geometry" />
        </mxCell>
        <mxCell id="cTXXYOUE4Hke3cIJga1Z-50" value="NAV" style="rounded=0;whiteSpace=wrap;html=1;" parent="cTXXYOUE4Hke3cIJga1Z-20" vertex="1">
          <mxGeometry x="213" y="292.5" width="134" height="20" as="geometry" />
        </mxCell>
        <mxCell id="cTXXYOUE4Hke3cIJga1Z-51" value="FOOTER" style="rounded=0;whiteSpace=wrap;html=1;" parent="cTXXYOUE4Hke3cIJga1Z-20" vertex="1">
          <mxGeometry x="213" y="392.5" width="134" height="20" as="geometry" />
        </mxCell>
        <mxCell id="cTXXYOUE4Hke3cIJga1Z-52" value="product description &lt;br&gt;add to cart" style="rounded=0;whiteSpace=wrap;html=1;" parent="cTXXYOUE4Hke3cIJga1Z-20" vertex="1">
          <mxGeometry x="213" y="323" width="130" height="60" as="geometry" />
        </mxCell>
        <mxCell id="cTXXYOUE4Hke3cIJga1Z-54" value="" style="whiteSpace=wrap;html=1;aspect=fixed;" parent="cTXXYOUE4Hke3cIJga1Z-20" vertex="1">
          <mxGeometry x="380" y="262.5" width="160" height="160" as="geometry" />
        </mxCell>
        <mxCell id="cTXXYOUE4Hke3cIJga1Z-55" value="Cart" style="text;html=1;strokeColor=none;fillColor=none;align=center;verticalAlign=middle;whiteSpace=wrap;rounded=0;" parent="cTXXYOUE4Hke3cIJga1Z-20" vertex="1">
          <mxGeometry x="416.5" y="272.5" width="83" height="17.5" as="geometry" />
        </mxCell>
        <mxCell id="cTXXYOUE4Hke3cIJga1Z-56" value="NAV" style="rounded=0;whiteSpace=wrap;html=1;" parent="cTXXYOUE4Hke3cIJga1Z-20" vertex="1">
          <mxGeometry x="393" y="292.5" width="134" height="20" as="geometry" />
        </mxCell>
        <mxCell id="cTXXYOUE4Hke3cIJga1Z-57" value="FOOTER" style="rounded=0;whiteSpace=wrap;html=1;" parent="cTXXYOUE4Hke3cIJga1Z-20" vertex="1">
          <mxGeometry x="393" y="392.5" width="134" height="20" as="geometry" />
        </mxCell>
        <mxCell id="cTXXYOUE4Hke3cIJga1Z-58" value="products in cart" style="rounded=0;whiteSpace=wrap;html=1;" parent="cTXXYOUE4Hke3cIJga1Z-20" vertex="1">
          <mxGeometry x="393" y="323" width="130" height="60" as="geometry" />
        </mxCell>
        <mxCell id="cTXXYOUE4Hke3cIJga1Z-65" value="" style="edgeStyle=orthogonalEdgeStyle;rounded=0;comic=0;jumpSize=3;orthogonalLoop=1;jettySize=auto;html=1;strokeWidth=1;" parent="cTXXYOUE4Hke3cIJga1Z-20" source="cTXXYOUE4Hke3cIJga1Z-61" target="cTXXYOUE4Hke3cIJga1Z-64" edge="1">
          <mxGeometry relative="1" as="geometry" />
        </mxCell>
        <mxCell id="cTXXYOUE4Hke3cIJga1Z-61" value="Checkout" style="rhombus;whiteSpace=wrap;html=1;" parent="cTXXYOUE4Hke3cIJga1Z-20" vertex="1">
          <mxGeometry x="418" y="110" width="80" height="80" as="geometry" />
        </mxCell>
        <mxCell id="cTXXYOUE4Hke3cIJga1Z-62" value="" style="edgeStyle=orthogonalEdgeStyle;rounded=0;comic=0;jumpSize=3;orthogonalLoop=1;jettySize=auto;html=1;strokeWidth=1;" parent="cTXXYOUE4Hke3cIJga1Z-20" source="cTXXYOUE4Hke3cIJga1Z-55" target="cTXXYOUE4Hke3cIJga1Z-61" edge="1">
          <mxGeometry relative="1" as="geometry" />
        </mxCell>
        <mxCell id="cTXXYOUE4Hke3cIJga1Z-66" style="edgeStyle=orthogonalEdgeStyle;rounded=0;comic=0;jumpSize=3;orthogonalLoop=1;jettySize=auto;html=1;entryX=1;entryY=0.5;entryDx=0;entryDy=0;strokeWidth=1;" parent="cTXXYOUE4Hke3cIJga1Z-20" source="cTXXYOUE4Hke3cIJga1Z-64" target="cTXXYOUE4Hke3cIJga1Z-37" edge="1">
          <mxGeometry relative="1" as="geometry" />
        </mxCell>
        <mxCell id="cTXXYOUE4Hke3cIJga1Z-64" value="Payment" style="rhombus;whiteSpace=wrap;html=1;" parent="cTXXYOUE4Hke3cIJga1Z-20" vertex="1">
          <mxGeometry x="313" y="110" width="80" height="80" as="geometry" />
        </mxCell>
        <mxCell id="cTXXYOUE4Hke3cIJga1Z-27" value="services" style="swimlane;" parent="1" vertex="1">
          <mxGeometry x="980" y="255" width="550" height="435" as="geometry">
            <mxRectangle x="1020" y="272.5" width="90" height="30" as="alternateBounds" />
          </mxGeometry>
        </mxCell>
        <mxCell id="cTXXYOUE4Hke3cIJga1Z-86" style="edgeStyle=orthogonalEdgeStyle;rounded=0;comic=0;jumpSize=3;orthogonalLoop=1;jettySize=auto;html=1;entryX=0;entryY=0.5;entryDx=0;entryDy=0;strokeWidth=1;" parent="cTXXYOUE4Hke3cIJga1Z-27" source="cTXXYOUE4Hke3cIJga1Z-23" target="cTXXYOUE4Hke3cIJga1Z-72" edge="1">
          <mxGeometry relative="1" as="geometry" />
        </mxCell>
        <mxCell id="cTXXYOUE4Hke3cIJga1Z-23" value="" style="whiteSpace=wrap;html=1;aspect=fixed;" parent="cTXXYOUE4Hke3cIJga1Z-27" vertex="1">
          <mxGeometry x="17" y="257.5" width="160" height="160" as="geometry" />
        </mxCell>
        <mxCell id="cTXXYOUE4Hke3cIJga1Z-25" value="NAV" style="rounded=0;whiteSpace=wrap;html=1;" parent="cTXXYOUE4Hke3cIJga1Z-27" vertex="1">
          <mxGeometry x="30" y="280" width="134" height="20" as="geometry" />
        </mxCell>
        <mxCell id="cTXXYOUE4Hke3cIJga1Z-24" value="services" style="text;html=1;strokeColor=none;fillColor=none;align=center;verticalAlign=middle;whiteSpace=wrap;rounded=0;" parent="cTXXYOUE4Hke3cIJga1Z-27" vertex="1">
          <mxGeometry x="67" y="260" width="60" height="20" as="geometry" />
        </mxCell>
        <mxCell id="cTXXYOUE4Hke3cIJga1Z-26" value="FOOTER" style="rounded=0;whiteSpace=wrap;html=1;" parent="cTXXYOUE4Hke3cIJga1Z-27" vertex="1">
          <mxGeometry x="30" y="385" width="134" height="20" as="geometry" />
        </mxCell>
        <mxCell id="cTXXYOUE4Hke3cIJga1Z-42" style="edgeStyle=orthogonalEdgeStyle;rounded=0;comic=0;orthogonalLoop=1;jettySize=auto;html=1;strokeWidth=2;" parent="cTXXYOUE4Hke3cIJga1Z-27" source="cTXXYOUE4Hke3cIJga1Z-43" edge="1">
          <mxGeometry relative="1" as="geometry">
            <mxPoint x="97" y="257.5" as="targetPoint" />
          </mxGeometry>
        </mxCell>
        <mxCell id="cTXXYOUE4Hke3cIJga1Z-43" value="confirmation" style="rhombus;whiteSpace=wrap;html=1;" parent="cTXXYOUE4Hke3cIJga1Z-27" vertex="1">
          <mxGeometry x="250" y="125" width="80" height="80" as="geometry" />
        </mxCell>
        <mxCell id="cTXXYOUE4Hke3cIJga1Z-72" value="" style="whiteSpace=wrap;html=1;aspect=fixed;" parent="cTXXYOUE4Hke3cIJga1Z-27" vertex="1">
          <mxGeometry x="199" y="257.5" width="160" height="160" as="geometry" />
        </mxCell>
        <mxCell id="cTXXYOUE4Hke3cIJga1Z-73" value="service page" style="text;html=1;strokeColor=none;fillColor=none;align=center;verticalAlign=middle;whiteSpace=wrap;rounded=0;" parent="cTXXYOUE4Hke3cIJga1Z-27" vertex="1">
          <mxGeometry x="259" y="267.5" width="83" height="17.5" as="geometry" />
        </mxCell>
        <mxCell id="cTXXYOUE4Hke3cIJga1Z-74" value="NAV" style="rounded=0;whiteSpace=wrap;html=1;" parent="cTXXYOUE4Hke3cIJga1Z-27" vertex="1">
          <mxGeometry x="225" y="287.5" width="134" height="20" as="geometry" />
        </mxCell>
        <mxCell id="cTXXYOUE4Hke3cIJga1Z-75" value="FOOTER" style="rounded=0;whiteSpace=wrap;html=1;" parent="cTXXYOUE4Hke3cIJga1Z-27" vertex="1">
          <mxGeometry x="225" y="387.5" width="134" height="20" as="geometry" />
        </mxCell>
        <mxCell id="cTXXYOUE4Hke3cIJga1Z-88" style="edgeStyle=orthogonalEdgeStyle;rounded=0;comic=0;jumpSize=3;orthogonalLoop=1;jettySize=auto;html=1;entryX=0.01;entryY=0.552;entryDx=0;entryDy=0;entryPerimeter=0;strokeWidth=1;" parent="cTXXYOUE4Hke3cIJga1Z-27" source="cTXXYOUE4Hke3cIJga1Z-76" target="cTXXYOUE4Hke3cIJga1Z-77" edge="1">
          <mxGeometry relative="1" as="geometry" />
        </mxCell>
        <mxCell id="cTXXYOUE4Hke3cIJga1Z-76" value="service description&lt;br&gt;confirm service form" style="rounded=0;whiteSpace=wrap;html=1;" parent="cTXXYOUE4Hke3cIJga1Z-27" vertex="1">
          <mxGeometry x="225" y="318" width="130" height="60" as="geometry" />
        </mxCell>
        <mxCell id="cTXXYOUE4Hke3cIJga1Z-77" value="" style="whiteSpace=wrap;html=1;aspect=fixed;" parent="cTXXYOUE4Hke3cIJga1Z-27" vertex="1">
          <mxGeometry x="380" y="260" width="160" height="160" as="geometry" />
        </mxCell>
        <mxCell id="cTXXYOUE4Hke3cIJga1Z-90" style="edgeStyle=orthogonalEdgeStyle;rounded=0;comic=0;jumpSize=3;orthogonalLoop=1;jettySize=auto;html=1;entryX=1;entryY=0.5;entryDx=0;entryDy=0;strokeWidth=2;exitX=0.5;exitY=0;exitDx=0;exitDy=0;" parent="cTXXYOUE4Hke3cIJga1Z-27" source="cTXXYOUE4Hke3cIJga1Z-77" target="cTXXYOUE4Hke3cIJga1Z-43" edge="1">
          <mxGeometry relative="1" as="geometry">
            <Array as="points">
              <mxPoint x="460" y="165" />
            </Array>
          </mxGeometry>
        </mxCell>
        <mxCell id="cTXXYOUE4Hke3cIJga1Z-78" value="service form" style="text;html=1;strokeColor=none;fillColor=none;align=center;verticalAlign=middle;whiteSpace=wrap;rounded=0;" parent="cTXXYOUE4Hke3cIJga1Z-27" vertex="1">
          <mxGeometry x="416.5" y="270" width="83" height="17.5" as="geometry" />
        </mxCell>
        <mxCell id="cTXXYOUE4Hke3cIJga1Z-79" value="NAV" style="rounded=0;whiteSpace=wrap;html=1;" parent="cTXXYOUE4Hke3cIJga1Z-27" vertex="1">
          <mxGeometry x="393" y="290" width="134" height="20" as="geometry" />
        </mxCell>
        <mxCell id="cTXXYOUE4Hke3cIJga1Z-80" value="FOOTER" style="rounded=0;whiteSpace=wrap;html=1;" parent="cTXXYOUE4Hke3cIJga1Z-27" vertex="1">
          <mxGeometry x="393" y="390" width="134" height="20" as="geometry" />
        </mxCell>
        <mxCell id="cTXXYOUE4Hke3cIJga1Z-81" value="form" style="rounded=0;whiteSpace=wrap;html=1;" parent="cTXXYOUE4Hke3cIJga1Z-27" vertex="1">
          <mxGeometry x="393" y="320.5" width="130" height="60" as="geometry" />
        </mxCell>
        <mxCell id="cTXXYOUE4Hke3cIJga1Z-84" value="service list" style="rounded=0;whiteSpace=wrap;html=1;" parent="cTXXYOUE4Hke3cIJga1Z-27" vertex="1">
          <mxGeometry x="34" y="310" width="130" height="60" as="geometry" />
        </mxCell>
        <mxCell id="cTXXYOUE4Hke3cIJga1Z-29" style="edgeStyle=orthogonalEdgeStyle;rounded=0;orthogonalLoop=1;jettySize=auto;html=1;strokeWidth=3;flowAnimation=0;comic=0;enumerate=0;orthogonal=0;noJump=0;bendable=1;backgroundOutline=0;arcSize=20;" parent="1" source="cTXXYOUE4Hke3cIJga1Z-28" target="cTXXYOUE4Hke3cIJga1Z-1" edge="1">
          <mxGeometry relative="1" as="geometry" />
        </mxCell>
        <mxCell id="cTXXYOUE4Hke3cIJga1Z-28" value="LOGOUT" style="rhombus;whiteSpace=wrap;html=1;" parent="1" vertex="1">
          <mxGeometry x="1680" y="10" width="80" height="80" as="geometry" />
        </mxCell>
        <mxCell id="cTXXYOUE4Hke3cIJga1Z-32" value="" style="endArrow=classic;html=1;rounded=0;comic=0;strokeWidth=3;entryX=0;entryY=1;entryDx=0;entryDy=0;" parent="1" target="cTXXYOUE4Hke3cIJga1Z-28" edge="1">
          <mxGeometry width="50" height="50" relative="1" as="geometry">
            <mxPoint x="940" y="210" as="sourcePoint" />
            <mxPoint x="1000" y="160" as="targetPoint" />
          </mxGeometry>
        </mxCell>
        <mxCell id="cTXXYOUE4Hke3cIJga1Z-33" value="" style="endArrow=classic;html=1;rounded=0;comic=0;strokeWidth=3;entryX=0;entryY=1;entryDx=0;entryDy=0;exitX=0.954;exitY=0.005;exitDx=0;exitDy=0;exitPerimeter=0;" parent="1" source="cTXXYOUE4Hke3cIJga1Z-27" edge="1">
          <mxGeometry width="50" height="50" relative="1" as="geometry">
            <mxPoint x="950" y="220" as="sourcePoint" />
            <mxPoint x="1710" y="80" as="targetPoint" />
          </mxGeometry>
        </mxCell>
        <mxCell id="cTXXYOUE4Hke3cIJga1Z-99" style="edgeStyle=orthogonalEdgeStyle;rounded=0;comic=0;jumpSize=3;orthogonalLoop=1;jettySize=auto;html=1;strokeWidth=2;entryX=0;entryY=0.5;entryDx=0;entryDy=0;" parent="1" source="cTXXYOUE4Hke3cIJga1Z-95" target="cTXXYOUE4Hke3cIJga1Z-1" edge="1">
          <mxGeometry relative="1" as="geometry">
            <mxPoint x="80" y="710" as="targetPoint" />
            <Array as="points">
              <mxPoint x="130" y="920" />
              <mxPoint x="130" y="700" />
            </Array>
          </mxGeometry>
        </mxCell>
        <mxCell id="cTXXYOUE4Hke3cIJga1Z-95" value="" style="whiteSpace=wrap;html=1;aspect=fixed;" parent="1" vertex="1">
          <mxGeometry x="150" y="840" width="160" height="160" as="geometry" />
        </mxCell>
        <mxCell id="cTXXYOUE4Hke3cIJga1Z-96" value="Register" style="text;html=1;strokeColor=none;fillColor=none;align=center;verticalAlign=middle;whiteSpace=wrap;rounded=0;" parent="1" vertex="1">
          <mxGeometry x="200" y="850" width="60" height="30" as="geometry" />
        </mxCell>
        <mxCell id="cTXXYOUE4Hke3cIJga1Z-97" value="FORM " style="rounded=1;whiteSpace=wrap;html=1;" parent="1" vertex="1">
          <mxGeometry x="170" y="910" width="120" height="60" as="geometry" />
        </mxCell>
        <mxCell id="AcpV7vZ9gTqf3X0dimNc-1" value="Vertical Container" style="swimlane;" vertex="1" parent="1">
          <mxGeometry x="780" y="790" width="670" height="470" as="geometry" />
        </mxCell>
      </root>
    </mxGraphModel>
  </diagram>
</mxfile>
